<svg width="63" height="63" viewBox="0 0 63 63" fill="none" xmlns="http://www.w3.org/2000/svg">
<circle cx="31.5" cy="31.5" r="31.5" fill="#09CFF7"/>
<path d="M25.2654 35.94C21.7054 34.66 19.0054 33.02 17.1654 31.02C15.3654 29.02 14.4654 26.28 14.4654 22.8C14.4654 20.28 15.1254 17.98 16.4454 15.9C17.7654 13.78 19.6654 12.1 22.1454 10.86C24.6254 9.58 27.6054 8.94 31.0854 8.94C39.6054 8.94 45.2054 12.04 47.8854 18.24L45.6054 19.86C44.0054 16.66 41.9854 14.52 39.5454 13.44C37.1454 12.36 34.3254 11.82 31.0854 11.82C28.2454 11.82 25.7854 12.32 23.7054 13.32C21.6654 14.28 20.0854 15.6 18.9654 17.28C17.8854 18.92 17.3454 20.76 17.3454 22.8C17.3454 25.6 18.1054 27.78 19.6254 29.34C21.1454 30.9 23.3454 32.2 26.2254 33.24L33.0054 35.64C36.0454 36.72 38.1054 37.98 39.1854 39.42C40.2654 40.82 40.8054 42.42 40.8054 44.22C40.8054 46.38 40.0654 48.18 38.5854 49.62C37.1054 51.06 34.6454 51.78 31.2054 51.78C28.6854 51.78 26.2654 51 23.9454 49.44C21.6254 47.84 19.7054 45.38 18.1854 42.06L20.6454 40.38C21.6854 43.06 23.1854 45.16 25.1454 46.68C27.1054 48.16 29.1254 48.9 31.2054 48.9C33.5254 48.9 35.2254 48.48 36.3054 47.64C37.3854 46.8 37.9254 45.66 37.9254 44.22C37.9254 42.94 37.4854 41.84 36.6054 40.92C35.7254 39.96 34.2054 39.1 32.0454 38.34L25.2654 35.94ZM29.1654 29.4C26.5654 28.52 24.7454 27.46 23.7054 26.22C22.6654 24.98 22.1454 23.64 22.1454 22.2C22.1454 20.96 22.4254 19.8 22.9854 18.72C23.5854 17.64 24.5654 16.76 25.9254 16.08C27.3254 15.4 29.1854 15.06 31.5054 15.06C33.8654 15.06 35.9854 15.66 37.8654 16.86C39.7454 18.06 41.2454 19.84 42.3654 22.2L39.9654 23.94C39.2454 22.02 38.1254 20.54 36.6054 19.5C35.0854 18.46 33.3854 17.94 31.5054 17.94C29.1854 17.94 27.5254 18.36 26.5254 19.2C25.5254 20 25.0254 21 25.0254 22.2C25.0254 24.04 26.7054 25.52 30.0654 26.64L37.5054 29.1C41.0654 30.26 43.8854 31.96 45.9654 34.2C48.0854 36.44 49.1454 39.38 49.1454 43.02C49.1454 47.86 47.5854 51.6 44.4654 54.24C41.3854 56.88 36.9854 58.2 31.2654 58.2C26.4254 58.2 22.4054 57.12 19.2054 54.96C16.0054 52.8 13.7454 49.8 12.4254 45.96L14.5854 44.52C16.3454 48.48 18.6254 51.28 21.4254 52.92C24.2254 54.56 27.5054 55.38 31.2654 55.38C36.0254 55.38 39.7054 54.32 42.3054 52.2C44.9454 50.08 46.2654 47.02 46.2654 43.02C46.2654 40.06 45.3654 37.7 43.5654 35.94C41.8054 34.18 39.4854 32.82 36.6054 31.86L29.1654 29.4Z" fill="white"/>
</svg>
