<svg width="2045" height="512" viewBox="0 0 2045 512" fill="none" xmlns="http://www.w3.org/2000/svg">
<circle cx="256" cy="256" r="256" fill="#09CFF7"/>
<path d="M202.259 277.778C171.287 266.642 147.797 252.374 131.789 234.974C116.129 217.574 108.299 193.736 108.299 163.46C108.299 141.536 114.041 121.526 125.525 103.43C137.009 84.986 153.539 70.37 175.115 59.582C196.691 48.446 222.617 42.878 252.893 42.878C327.017 42.878 375.737 69.848 399.053 123.788L379.217 137.882C365.297 110.042 347.723 91.424 326.495 82.028C305.615 72.632 281.081 67.934 252.893 67.934C228.185 67.934 206.783 72.284 188.687 80.984C170.939 89.336 157.193 100.82 147.449 115.436C138.053 129.704 133.355 145.712 133.355 163.46C133.355 187.82 139.967 206.786 153.191 220.358C166.415 233.93 185.555 245.24 210.611 254.288L269.597 275.168C296.045 284.564 313.967 295.526 323.363 308.054C332.759 320.234 337.457 334.154 337.457 349.814C337.457 368.606 331.019 384.266 318.143 396.794C305.267 409.322 283.865 415.586 253.937 415.586C232.013 415.586 210.959 408.8 190.775 395.228C170.591 381.308 153.887 359.906 140.663 331.022L162.065 316.406C171.113 339.722 184.163 357.992 201.215 371.216C218.267 384.092 235.841 390.53 253.937 390.53C274.121 390.53 288.911 386.876 298.307 379.568C307.703 372.26 312.401 362.342 312.401 349.814C312.401 338.678 308.573 329.108 300.917 321.104C293.261 312.752 280.037 305.27 261.245 298.658L202.259 277.778ZM236.189 220.88C213.569 213.224 197.735 204.002 188.687 193.214C179.639 182.426 175.115 170.768 175.115 158.24C175.115 147.452 177.551 137.36 182.423 127.964C187.643 118.568 196.169 110.912 208.001 104.996C220.181 99.08 236.363 96.122 256.547 96.122C277.079 96.122 295.523 101.342 311.879 111.782C328.235 122.222 341.285 137.708 351.029 158.24L330.149 173.378C323.885 156.674 314.141 143.798 300.917 134.75C287.693 125.702 272.903 121.178 256.547 121.178C236.363 121.178 221.921 124.832 213.221 132.14C204.521 139.1 200.171 147.8 200.171 158.24C200.171 174.248 214.787 187.124 244.019 196.868L308.747 218.27C339.719 228.362 364.253 243.152 382.349 262.64C400.793 282.128 410.015 307.706 410.015 339.374C410.015 381.482 396.443 414.02 369.299 436.988C342.503 459.956 304.223 471.44 254.459 471.44C212.351 471.44 177.377 462.044 149.537 443.252C121.697 424.46 102.035 398.36 90.5509 364.952L109.343 352.424C124.655 386.876 144.491 411.236 168.851 425.504C193.211 439.772 221.747 446.906 254.459 446.906C295.871 446.906 327.887 437.684 350.507 419.24C373.475 400.796 384.959 374.174 384.959 339.374C384.959 313.622 377.129 293.09 361.469 277.778C346.157 262.466 325.973 250.634 300.917 242.282L236.189 220.88Z" fill="white"/>
<path d="M655.022 287.918C632.357 279.769 615.167 269.327 603.452 256.594C591.992 243.861 586.262 226.416 586.262 204.26C586.262 188.216 590.464 173.573 598.868 160.33C607.272 146.833 619.369 136.137 635.158 128.242C650.947 120.093 669.92 116.018 692.076 116.018C746.32 116.018 781.973 135.755 799.036 175.228L784.52 185.542C774.333 165.169 761.473 151.544 745.938 144.668C730.658 137.792 712.704 134.354 692.076 134.354C673.995 134.354 658.333 137.537 645.09 143.904C632.102 150.016 622.043 158.42 614.912 169.116C608.036 179.557 604.598 191.272 604.598 204.26C604.598 222.087 609.437 235.966 619.114 245.898C628.791 255.83 642.798 264.107 661.134 270.728L704.3 286.008C723.655 292.884 736.77 300.906 743.646 310.074C750.522 318.987 753.96 329.174 753.96 340.634C753.96 354.386 749.249 365.846 739.826 375.014C730.403 384.182 714.741 388.766 692.84 388.766C676.796 388.766 661.389 383.8 646.618 373.868C631.847 363.681 619.623 348.019 609.946 326.882L625.608 316.186C632.229 333.249 641.779 346.619 654.258 356.296C666.737 365.719 679.597 370.43 692.84 370.43C707.611 370.43 718.434 367.756 725.31 362.408C732.186 357.06 735.624 349.802 735.624 340.634C735.624 332.485 732.823 325.481 727.22 319.624C721.617 313.512 711.94 308.037 698.188 303.198L655.022 287.918ZM679.852 246.28C663.299 240.677 651.711 233.929 645.09 226.034C638.469 218.139 635.158 209.608 635.158 200.44C635.158 192.545 636.941 185.16 640.506 178.284C644.326 171.408 650.565 165.805 659.224 161.476C668.137 157.147 679.979 154.982 694.75 154.982C709.775 154.982 723.273 158.802 735.242 166.442C747.211 174.082 756.761 185.415 763.892 200.44L748.612 211.518C744.028 199.294 736.897 189.871 727.22 183.25C717.543 176.629 706.719 173.318 694.75 173.318C679.979 173.318 669.411 175.992 663.044 181.34C656.677 186.433 653.494 192.8 653.494 200.44C653.494 212.155 664.19 221.577 685.582 228.708L732.95 244.37C755.615 251.755 773.569 262.579 786.812 276.84C800.309 291.101 807.058 309.819 807.058 332.994C807.058 363.809 797.126 387.62 777.262 404.428C757.653 421.236 729.639 429.64 693.222 429.64C662.407 429.64 636.813 422.764 616.44 409.012C596.067 395.26 581.678 376.16 573.274 351.712L587.026 342.544C598.231 367.756 612.747 385.583 630.574 396.024C648.401 406.465 669.283 411.686 693.222 411.686C723.527 411.686 746.957 404.937 763.51 391.44C780.318 377.943 788.722 358.461 788.722 332.994C788.722 314.149 782.992 299.123 771.532 287.918C760.327 276.713 745.556 268.054 727.22 261.942L679.852 246.28ZM920.444 142.758H938.78V209.226H974.688V227.562H920.444V142.758ZM841.37 209.226H874.986V142.758H893.322V227.562H841.37V209.226ZM982.328 390.294C968.576 390.294 957.498 389.785 949.094 388.766C940.944 387.493 934.705 385.328 930.376 382.272C926.301 379.216 923.627 374.632 922.354 368.52C921.08 362.153 920.444 353.749 920.444 343.308V242.46H974.688V260.796H938.78V343.308C938.78 352.476 939.671 359.097 941.454 363.172C943.491 367.247 947.82 369.793 954.442 370.812C961.318 371.576 971.886 371.958 986.148 371.958L982.328 390.294ZM974.306 426.584C949.348 426.584 929.357 424.674 914.332 420.854C899.306 416.779 888.483 409.776 881.861 399.844C875.24 389.657 871.93 375.651 871.93 357.824V260.796H841.37V242.46H890.266V357.824C890.266 371.831 893.067 382.527 898.67 389.912C904.272 397.297 913.44 402.263 926.174 404.81C939.162 407.357 956.479 408.757 978.126 409.012L974.306 426.584ZM1174.82 209.226V343.69C1170.74 358.461 1163.23 369.793 1152.28 377.688C1141.33 385.328 1128.98 389.148 1115.22 389.148C1101.22 389.148 1089.63 384.819 1080.46 376.16C1071.29 367.247 1066.71 354.386 1066.71 337.578V209.226H1085.05V337.578C1085.05 348.274 1087.85 356.551 1093.45 362.408C1099.05 368.011 1106.31 370.812 1115.22 370.812C1124.9 370.812 1133.56 368.265 1141.2 363.172C1148.84 358.079 1153.93 350.821 1156.48 341.398V209.226H1174.82ZM1204.99 209.226H1223.33V422H1204.99V209.226ZM1162.59 402.518C1157.24 410.158 1148.97 416.143 1137.76 420.472C1126.81 424.547 1112.68 426.584 1095.36 426.584C1071.68 426.584 1052.83 419.453 1038.82 405.192C1024.82 390.931 1017.81 372.213 1017.81 349.038V209.226H1036.15V349.038C1036.15 366.865 1041.5 381.253 1052.19 392.204C1062.89 403.155 1077.28 408.63 1095.36 408.63C1105.04 408.63 1114.72 407.739 1124.39 405.956C1134.07 404.173 1143.62 400.099 1153.04 393.732C1162.47 387.111 1171.76 376.924 1180.93 363.172V422H1162.59V402.518ZM1462.41 282.188C1462.41 271.237 1459.99 261.305 1455.15 252.392C1450.31 243.224 1443.43 235.966 1434.52 230.618C1425.86 225.27 1415.42 222.596 1403.2 222.596C1393.52 222.596 1383.84 223.487 1374.16 225.27C1364.49 227.053 1354.94 231.127 1345.51 237.494C1336.09 243.861 1326.8 254.047 1317.63 268.054V209.226H1335.96V228.708C1341.31 221.068 1349.46 215.083 1360.41 210.754C1371.62 206.425 1385.88 204.26 1403.2 204.26C1418.99 204.26 1432.61 207.825 1444.07 214.956C1455.78 221.832 1464.83 231.255 1471.19 243.224C1477.56 254.939 1480.74 267.927 1480.74 282.188V422H1462.41V282.188ZM1275.23 209.226H1293.56V422H1275.23V209.226ZM1413.51 293.648C1413.51 282.952 1410.71 274.803 1405.11 269.2C1399.5 263.343 1392.25 260.414 1383.33 260.414C1373.91 260.414 1365.38 262.961 1357.74 268.054C1350.1 273.147 1344.88 280.405 1342.08 289.828V422H1323.74V287.536C1328.07 272.511 1335.58 261.178 1346.28 253.538C1357.23 245.898 1369.58 242.078 1383.33 242.078C1397.59 242.078 1409.18 246.535 1418.09 255.448C1427.26 264.107 1431.85 276.84 1431.85 293.648V422H1413.51V293.648ZM1583.06 124.04H1601.4V183.632H1583.06V124.04ZM1532.26 124.04H1550.59V183.632H1532.26V124.04ZM1582.3 209.226H1600.63V422H1582.3V209.226ZM1533.4 209.226H1551.74V422H1533.4V209.226ZM1716.53 142.758H1734.86V209.226H1770.77V227.562H1716.53V142.758ZM1637.45 209.226H1671.07V142.758H1689.4V227.562H1637.45V209.226ZM1778.41 390.294C1764.66 390.294 1753.58 389.785 1745.18 388.766C1737.03 387.493 1730.79 385.328 1726.46 382.272C1722.38 379.216 1719.71 374.632 1718.44 368.52C1717.16 362.153 1716.53 353.749 1716.53 343.308V242.46H1770.77V260.796H1734.86V343.308C1734.86 352.476 1735.75 359.097 1737.54 363.172C1739.57 367.247 1743.9 369.793 1750.52 370.812C1757.4 371.576 1767.97 371.958 1782.23 371.958L1778.41 390.294ZM1770.39 426.584C1745.43 426.584 1725.44 424.674 1710.41 420.854C1695.39 416.779 1684.56 409.776 1677.94 399.844C1671.32 389.657 1668.01 375.651 1668.01 357.824V260.796H1637.45V242.46H1686.35V357.824C1686.35 371.831 1689.15 382.527 1694.75 389.912C1700.35 397.297 1709.52 402.263 1722.26 404.81C1735.24 407.357 1752.56 408.757 1774.21 409.012L1770.39 426.584ZM1854.77 124.04L1913.22 255.83L1972.04 124.04H1992.29L1913.6 300.906L1834.52 124.04H1854.77ZM1929.26 318.86L2021.32 124.04H2041.19L1947.6 322.298V422H1929.26V318.86ZM1876.93 321.916L1782.95 124.04H1802.82L1895.26 317.714V422H1876.93V321.916Z" fill="#FFA600"/>
</svg>
