<svg width="256" height="63" viewBox="0 0 256 63" fill="none" xmlns="http://www.w3.org/2000/svg">
<circle cx="31.5" cy="31.5" r="31.5" fill="#09CFF7"/>
<path d="M25.2654 35.94C21.7054 34.66 19.0054 33.02 17.1654 31.02C15.3654 29.02 14.4654 26.28 14.4654 22.8C14.4654 20.28 15.1254 17.98 16.4454 15.9C17.7654 13.78 19.6654 12.1 22.1454 10.86C24.6254 9.58 27.6054 8.94 31.0854 8.94C39.6054 8.94 45.2054 12.04 47.8854 18.24L45.6054 19.86C44.0054 16.66 41.9854 14.52 39.5454 13.44C37.1454 12.36 34.3254 11.82 31.0854 11.82C28.2454 11.82 25.7854 12.32 23.7054 13.32C21.6654 14.28 20.0854 15.6 18.9654 17.28C17.8854 18.92 17.3454 20.76 17.3454 22.8C17.3454 25.6 18.1054 27.78 19.6254 29.34C21.1454 30.9 23.3454 32.2 26.2254 33.24L33.0054 35.64C36.0454 36.72 38.1054 37.98 39.1854 39.42C40.2654 40.82 40.8054 42.42 40.8054 44.22C40.8054 46.38 40.0654 48.18 38.5854 49.62C37.1054 51.06 34.6454 51.78 31.2054 51.78C28.6854 51.78 26.2654 51 23.9454 49.44C21.6254 47.84 19.7054 45.38 18.1854 42.06L20.6454 40.38C21.6854 43.06 23.1854 45.16 25.1454 46.68C27.1054 48.16 29.1254 48.9 31.2054 48.9C33.5254 48.9 35.2254 48.48 36.3054 47.64C37.3854 46.8 37.9254 45.66 37.9254 44.22C37.9254 42.94 37.4854 41.84 36.6054 40.92C35.7254 39.96 34.2054 39.1 32.0454 38.34L25.2654 35.94ZM29.1654 29.4C26.5654 28.52 24.7454 27.46 23.7054 26.22C22.6654 24.98 22.1454 23.64 22.1454 22.2C22.1454 20.96 22.4254 19.8 22.9854 18.72C23.5854 17.64 24.5654 16.76 25.9254 16.08C27.3254 15.4 29.1854 15.06 31.5054 15.06C33.8654 15.06 35.9854 15.66 37.8654 16.86C39.7454 18.06 41.2454 19.84 42.3654 22.2L39.9654 23.94C39.2454 22.02 38.1254 20.54 36.6054 19.5C35.0854 18.46 33.3854 17.94 31.5054 17.94C29.1854 17.94 27.5254 18.36 26.5254 19.2C25.5254 20 25.0254 21 25.0254 22.2C25.0254 24.04 26.7054 25.52 30.0654 26.64L37.5054 29.1C41.0654 30.26 43.8854 31.96 45.9654 34.2C48.0854 36.44 49.1454 39.38 49.1454 43.02C49.1454 47.86 47.5854 51.6 44.4654 54.24C41.3854 56.88 36.9854 58.2 31.2654 58.2C26.4254 58.2 22.4054 57.12 19.2054 54.96C16.0054 52.8 13.7454 49.8 12.4254 45.96L14.5854 44.52C16.3454 48.48 18.6254 51.28 21.4254 52.92C24.2254 54.56 27.5054 55.38 31.2654 55.38C36.0254 55.38 39.7054 54.32 42.3054 52.2C44.9454 50.08 46.2654 47.02 46.2654 43.02C46.2654 40.06 45.3654 37.7 43.5654 35.94C41.8054 34.18 39.4854 32.82 36.6054 31.86L29.1654 29.4Z" fill="white"/>
<path d="M81.3326 35.652C78.4846 34.628 76.3246 33.316 74.8526 31.716C73.4126 30.116 72.6926 27.924 72.6926 25.14C72.6926 23.124 73.2206 21.284 74.2766 19.62C75.3326 17.924 76.8526 16.58 78.8366 15.588C80.8206 14.564 83.2046 14.052 85.9886 14.052C92.8046 14.052 97.2846 16.532 99.4286 21.492L97.6046 22.788C96.3246 20.228 94.7086 18.516 92.7566 17.652C90.8366 16.788 88.5806 16.356 85.9886 16.356C83.7166 16.356 81.7486 16.756 80.0846 17.556C78.4526 18.324 77.1886 19.38 76.2926 20.724C75.4286 22.036 74.9966 23.508 74.9966 25.14C74.9966 27.38 75.6046 29.124 76.8206 30.372C78.0366 31.62 79.7966 32.66 82.1006 33.492L87.5246 35.412C89.9566 36.276 91.6046 37.284 92.4686 38.436C93.3326 39.556 93.7646 40.836 93.7646 42.276C93.7646 44.004 93.1726 45.444 91.9886 46.596C90.8046 47.748 88.8366 48.324 86.0846 48.324C84.0686 48.324 82.1326 47.7 80.2766 46.452C78.4206 45.172 76.8846 43.204 75.6686 40.548L77.6366 39.204C78.4686 41.348 79.6686 43.028 81.2366 44.244C82.8046 45.428 84.4206 46.02 86.0846 46.02C87.9406 46.02 89.3006 45.684 90.1646 45.012C91.0286 44.34 91.4606 43.428 91.4606 42.276C91.4606 41.252 91.1086 40.372 90.4046 39.636C89.7006 38.868 88.4846 38.18 86.7566 37.572L81.3326 35.652ZM84.4526 30.42C82.3726 29.716 80.9166 28.868 80.0846 27.876C79.2526 26.884 78.8366 25.812 78.8366 24.66C78.8366 23.668 79.0606 22.74 79.5086 21.876C79.9886 21.012 80.7726 20.308 81.8606 19.764C82.9806 19.22 84.4686 18.948 86.3246 18.948C88.2126 18.948 89.9086 19.428 91.4126 20.388C92.9166 21.348 94.1166 22.772 95.0126 24.66L93.0926 26.052C92.5166 24.516 91.6206 23.332 90.4046 22.5C89.1886 21.668 87.8286 21.252 86.3246 21.252C84.4686 21.252 83.1406 21.588 82.3406 22.26C81.5406 22.9 81.1406 23.7 81.1406 24.66C81.1406 26.132 82.4846 27.316 85.1726 28.212L91.1246 30.18C93.9726 31.108 96.2286 32.468 97.8926 34.26C99.5886 36.052 100.437 38.404 100.437 41.316C100.437 45.188 99.1886 48.18 96.6926 50.292C94.2286 52.404 90.7086 53.46 86.1326 53.46C82.2606 53.46 79.0446 52.596 76.4846 50.868C73.9246 49.14 72.1166 46.74 71.0606 43.668L72.7886 42.516C74.1966 45.684 76.0206 47.924 78.2606 49.236C80.5006 50.548 83.1246 51.204 86.1326 51.204C89.9406 51.204 92.8846 50.356 94.9646 48.66C97.0766 46.964 98.1326 44.516 98.1326 41.316C98.1326 38.948 97.4126 37.06 95.9726 35.652C94.5646 34.244 92.7086 33.156 90.4046 32.388L84.4526 30.42ZM114.684 17.412H116.988V25.764H121.5V28.068H114.684V17.412ZM104.748 25.764H108.972V17.412H111.276V28.068H104.748V25.764ZM122.46 48.516C120.732 48.516 119.34 48.452 118.284 48.324C117.26 48.164 116.476 47.892 115.932 47.508C115.42 47.124 115.084 46.548 114.924 45.78C114.764 44.98 114.684 43.924 114.684 42.612V29.94H121.5V32.244H116.988V42.612C116.988 43.764 117.1 44.596 117.324 45.108C117.58 45.62 118.124 45.94 118.956 46.068C119.82 46.164 121.148 46.212 122.94 46.212L122.46 48.516ZM121.452 53.076C118.316 53.076 115.804 52.836 113.916 52.356C112.028 51.844 110.668 50.964 109.836 49.716C109.004 48.436 108.588 46.676 108.588 44.436V32.244H104.748V29.94H110.892V44.436C110.892 46.196 111.244 47.54 111.948 48.468C112.652 49.396 113.804 50.02 115.404 50.34C117.036 50.66 119.212 50.836 121.932 50.868L121.452 53.076ZM146.647 25.764V42.66C146.135 44.516 145.191 45.94 143.815 46.932C142.439 47.892 140.887 48.372 139.159 48.372C137.399 48.372 135.943 47.828 134.791 46.74C133.639 45.62 133.063 44.004 133.063 41.892V25.764H135.367V41.892C135.367 43.236 135.719 44.276 136.423 45.012C137.127 45.716 138.039 46.068 139.159 46.068C140.375 46.068 141.463 45.748 142.423 45.108C143.383 44.468 144.023 43.556 144.343 42.372V25.764H146.647ZM150.439 25.764H152.743V52.5H150.439V25.764ZM145.111 50.052C144.439 51.012 143.399 51.764 141.991 52.308C140.615 52.82 138.839 53.076 136.663 53.076C133.687 53.076 131.319 52.18 129.559 50.388C127.799 48.596 126.919 46.244 126.919 43.332V25.764H129.223V43.332C129.223 45.572 129.895 47.38 131.239 48.756C132.583 50.132 134.391 50.82 136.663 50.82C137.879 50.82 139.095 50.708 140.311 50.484C141.527 50.26 142.727 49.748 143.911 48.948C145.095 48.116 146.263 46.836 147.415 45.108V52.5H145.111V50.052ZM182.784 34.932C182.784 33.556 182.48 32.308 181.872 31.188C181.264 30.036 180.4 29.124 179.28 28.452C178.192 27.78 176.88 27.444 175.344 27.444C174.128 27.444 172.912 27.556 171.696 27.78C170.48 28.004 169.28 28.516 168.096 29.316C166.912 30.116 165.744 31.396 164.592 33.156V25.764H166.896V28.212C167.568 27.252 168.592 26.5 169.968 25.956C171.376 25.412 173.168 25.14 175.344 25.14C177.328 25.14 179.04 25.588 180.48 26.484C181.952 27.348 183.088 28.532 183.888 30.036C184.688 31.508 185.088 33.14 185.088 34.932V52.5H182.784V34.932ZM159.264 25.764H161.568V52.5H159.264V25.764ZM176.64 36.372C176.64 35.028 176.288 34.004 175.584 33.3C174.88 32.564 173.968 32.196 172.848 32.196C171.664 32.196 170.592 32.516 169.632 33.156C168.672 33.796 168.016 34.708 167.664 35.892V52.5H165.36V35.604C165.904 33.716 166.848 32.292 168.192 31.332C169.568 30.372 171.12 29.892 172.848 29.892C174.64 29.892 176.096 30.452 177.216 31.572C178.368 32.66 178.944 34.26 178.944 36.372V52.5H176.64V36.372ZM197.945 15.06H200.249V22.548H197.945V15.06ZM191.561 15.06H193.865V22.548H191.561V15.06ZM197.849 25.764H200.153V52.5H197.849V25.764ZM191.705 25.764H194.009V52.5H191.705V25.764ZM214.715 17.412H217.019V25.764H221.531V28.068H214.715V17.412ZM204.779 25.764H209.003V17.412H211.307V28.068H204.779V25.764ZM222.491 48.516C220.763 48.516 219.371 48.452 218.315 48.324C217.291 48.164 216.507 47.892 215.963 47.508C215.451 47.124 215.115 46.548 214.955 45.78C214.795 44.98 214.715 43.924 214.715 42.612V29.94H221.531V32.244H217.019V42.612C217.019 43.764 217.131 44.596 217.355 45.108C217.611 45.62 218.155 45.94 218.987 46.068C219.851 46.164 221.179 46.212 222.971 46.212L222.491 48.516ZM221.483 53.076C218.347 53.076 215.835 52.836 213.947 52.356C212.059 51.844 210.699 50.964 209.867 49.716C209.035 48.436 208.619 46.676 208.619 44.436V32.244H204.779V29.94H210.923V44.436C210.923 46.196 211.275 47.54 211.979 48.468C212.683 49.396 213.835 50.02 215.435 50.34C217.067 50.66 219.243 50.836 221.963 50.868L221.483 53.076ZM232.086 15.06L239.43 31.62L246.822 15.06H249.366L239.478 37.284L229.542 15.06H232.086ZM241.446 39.54L253.014 15.06H255.51L243.75 39.972V52.5H241.446V39.54ZM234.87 39.924L223.062 15.06H225.558L237.174 39.396V52.5H234.87V39.924Z" fill="#FFA600"/>
</svg>
